#tb 0: 1/3
#media_type 0: video
#codec_id 0: rawvideo
#dimensions 0: 320x240
#sar 0: 1/1
0,          5,          5,        1,   115200, 0x3744b3ed
0,          6,          6,        1,   115200, 0x3744b3ed
0,          7,          7,        1,   115200, 0x201b9db1
0,          8,          8,        1,   115200, 0x75e1a17b
0,          9,          9,        1,   115200, 0xb73857e2
0,         10,         10,        1,   115200, 0x02b6ab21
